<svg xmlns="http://www.w3.org/2000/svg" height="24" viewBox="0 -960 960 960" width="24"><path d="M848.131-683.348v480.478q0 37.783-26.609 64.392-26.609 26.609-64.392 26.609H202.87q-37.783 0-64.392-26.609-26.609-26.609-26.609-64.392v-554.26q0-37.783 26.609-64.392 26.609-26.609 64.392-26.609h480.478l164.783 164.783Zm-91.001 38.544L644.804-757.13H202.87v554.26h554.26v-441.934ZM480-242.87q50 0 85-35t35-85q0-50-35-85t-85-35q-50 0-85 35t-35 85q0 50 35 85t85 35ZM242.87-557.13h360v-160h-360v160Zm-40-87.674v441.934-554.26 112.326Z"/></svg>